<?xml version="1.0" encoding="UTF-8" standalone="no"?>
<!DOCTYPE svg PUBLIC "-//W3C//DTD SVG 1.1//EN" "http://www.w3.org/Graphics/SVG/1.1/DTD/svg11.dtd">
<svg xmlns="http://www.w3.org/2000/svg" version="1.1" viewBox="0.00 0.00 150.00 150.00">
<g stroke-width="2.00" fill="none" stroke-linecap="butt">
<path stroke="#ad90c4" vector-effect="non-scaling-stroke" d="
  M 62.46 87.57
  L 78.67 115.44"
/>
<path stroke="#ffc880" vector-effect="non-scaling-stroke" d="
  M 78.67 115.44
  L 94.03 115.47"
/>
<path stroke="#f38189" vector-effect="non-scaling-stroke" d="
  M 94.03 115.47
  L 94.51 115.49
  Q 94.91 115.51 95.12 115.16
  L 144.90 33.14
  A 0.26 0.24 15.0 0 0 144.67 32.77
  Q 144.44 32.77 128.58 32.76
  Q 128.11 32.76 127.87 33.17
  Q 127.73 33.41 87.32 100.75
  Q 87.19 100.97 87.00 101.09
  Q 86.81 101.21 86.59 101.29"
/>
<path stroke="#ad90c4" vector-effect="non-scaling-stroke" d="
  M 86.59 101.29
  L 77.70 86.19"
/>
<path stroke="#909ab9" vector-effect="non-scaling-stroke" d="
  M 77.70 86.19
  C 89.33 82.56 97.65 73.25 98.01 61.16
  Q 98.25 53.21 97.96 45.45
  C 97.68 37.95 91.95 31.01 84.59 29.27
  Q 81.82 28.61 75.13 28.66
  Q 46.24 28.87 20.16 28.68
  Q 17.01 28.65 14.85 29.84
  Q 11.03 31.95 11.03 37.23
  Q 10.97 115.11 10.98 115.16
  Q 11.10 115.56 11.38 115.56
  Q 18.79 115.53 26.41 115.57
  Q 27.00 115.57 27.00 114.98
  L 27.00 45.00
  Q 27.00 44.50 27.50 44.50
  L 78.68 44.50
  Q 82.22 44.50 82.23 48.04
  C 82.24 52.90 82.94 59.60 81.13 63.71
  C 78.86 68.86 73.31 71.33 67.77 71.30
  Q 51.14 71.19 33.78 71.27
  Q 33.25 71.27 33.25 71.80
  L 33.25 86.96
  Q 33.25 87.47 33.76 87.47
  L 62.46 87.57"
/>
<path stroke="#3e2b7d" vector-effect="non-scaling-stroke" d="
  M 77.70 86.19
  Q 70.51 87.84 62.46 87.57"
/>
<path stroke="#ad5944" vector-effect="non-scaling-stroke" d="
  M 86.63 101.78
  L 78.67 115.44"
/>
<path stroke="#f34a0a" vector-effect="non-scaling-stroke" d="
  M 94.03 115.47
  L 94.26 115.00
  Q 94.49 114.54 94.22 114.10
  L 86.63 101.78"
/>
<path stroke="#a0124e" vector-effect="non-scaling-stroke" d="
  M 86.63 101.78
  L 86.59 101.29"
/>
</g>
<path fill="#ffffff" d="
  M 0.00 0.00
  L 150.00 0.00
  L 150.00 150.00
  L 0.00 150.00
  L 0.00 0.00
  Z
  M 62.46 87.57
  L 78.67 115.44
  L 94.03 115.47
  L 94.51 115.49
  Q 94.91 115.51 95.12 115.16
  L 144.90 33.14
  A 0.26 0.24 15.0 0 0 144.67 32.77
  Q 144.44 32.77 128.58 32.76
  Q 128.11 32.76 127.87 33.17
  Q 127.73 33.41 87.32 100.75
  Q 87.19 100.97 87.00 101.09
  Q 86.81 101.21 86.59 101.29
  L 77.70 86.19
  C 89.33 82.56 97.65 73.25 98.01 61.16
  Q 98.25 53.21 97.96 45.45
  C 97.68 37.95 91.95 31.01 84.59 29.27
  Q 81.82 28.61 75.13 28.66
  Q 46.24 28.87 20.16 28.68
  Q 17.01 28.65 14.85 29.84
  Q 11.03 31.95 11.03 37.23
  Q 10.97 115.11 10.98 115.16
  Q 11.10 115.56 11.38 115.56
  Q 18.79 115.53 26.41 115.57
  Q 27.00 115.57 27.00 114.98
  L 27.00 45.00
  Q 27.00 44.50 27.50 44.50
  L 78.68 44.50
  Q 82.22 44.50 82.23 48.04
  C 82.24 52.90 82.94 59.60 81.13 63.71
  C 78.86 68.86 73.31 71.33 67.77 71.30
  Q 51.14 71.19 33.78 71.27
  Q 33.25 71.27 33.25 71.80
  L 33.25 86.96
  Q 33.25 87.47 33.76 87.47
  L 62.46 87.57
  Z"
/>
<path fill="#213572" d="
  M 77.70 86.19
  Q 70.51 87.84 62.46 87.57
  L 33.76 87.47
  Q 33.25 87.47 33.25 86.96
  L 33.25 71.80
  Q 33.25 71.27 33.78 71.27
  Q 51.14 71.19 67.77 71.30
  C 73.31 71.33 78.86 68.86 81.13 63.71
  C 82.94 59.60 82.24 52.90 82.23 48.04
  Q 82.22 44.50 78.68 44.50
  L 27.50 44.50
  Q 27.00 44.50 27.00 45.00
  L 27.00 114.98
  Q 27.00 115.57 26.41 115.57
  Q 18.79 115.53 11.38 115.56
  Q 11.10 115.56 10.98 115.16
  Q 10.97 115.11 11.03 37.23
  Q 11.03 31.95 14.85 29.84
  Q 17.01 28.65 20.16 28.68
  Q 46.24 28.87 75.13 28.66
  Q 81.82 28.61 84.59 29.27
  C 91.95 31.01 97.68 37.95 97.96 45.45
  Q 98.25 53.21 98.01 61.16
  C 97.65 73.25 89.33 82.56 77.70 86.19
  Z"
/>
<path fill="#e60313" d="
  M 94.03 115.47
  L 94.26 115.00
  Q 94.49 114.54 94.22 114.10
  L 86.63 101.78
  L 86.59 101.29
  Q 86.81 101.21 87.00 101.09
  Q 87.19 100.97 87.32 100.75
  Q 127.73 33.41 127.87 33.17
  Q 128.11 32.76 128.58 32.76
  Q 144.44 32.77 144.67 32.77
  A 0.26 0.24 15.0 0 1 144.90 33.14
  L 95.12 115.16
  Q 94.91 115.51 94.51 115.49
  L 94.03 115.47
  Z"
/>
<path fill="#5a2188" d="
  M 77.70 86.19
  L 86.59 101.29
  L 86.63 101.78
  L 78.67 115.44
  L 62.46 87.57
  Q 70.51 87.84 77.70 86.19
  Z"
/>
<path fill="#ff9100" d="
  M 86.63 101.78
  L 94.22 114.10
  Q 94.49 114.54 94.26 115.00
  L 94.03 115.47
  L 78.67 115.44
  L 86.63 101.78
  Z"
/>
</svg>
